<?xml version="1.0" encoding="utf-8"?>
<!-- Svg Vector Icons : http://www.onlinewebfonts.com/icon -->
<!DOCTYPE svg PUBLIC "-//W3C//DTD SVG 1.1//EN" "http://www.w3.org/Graphics/SVG/1.1/DTD/svg11.dtd">
<svg version="1.1" xmlns="http://www.w3.org/2000/svg" xmlns:xlink="http://www.w3.org/1999/xlink" x="0px" y="0px" viewBox="0 0 1000 1000" enable-background="new 0 0 1000 1000" xml:space="preserve">
<metadata> Svg Vector Icons : http://www.onlinewebfonts.com/icon </metadata>
<g><path d="M573,466.5c3.5,1.2,7.3,2.3,11.4,3.2C580.3,468.8,576.5,467.7,573,466.5z"/><path d="M612.2,472.1c-3.4,0.2-6.8,0.2-10,0c1.7,0.1,3.3,0.3,5.1,0.3C608.8,472.5,610.5,472.2,612.2,472.1z"/><path d="M587.6,470.4c3.1,0.6,6.3,1.1,9.7,1.5C594,471.5,590.7,471,587.6,470.4z"/><path d="M616.5,471.9c4.9-0.5,9.9-1.2,15.1-2.7C626.4,470.6,621.4,471.4,616.5,471.9z"/><path d="M816.8,603.1l0.4-0.4l-15.5-15.6l-9.9-9.8l-17-17l-8.8-8.8l-84.8-84.8c-10,7-24.1,14.3-44.8,20c-9.4,2.6-19.2,3.9-29.2,3.9c-39.3,0-68.8-20.6-69.3-21l-81.7-52.4l-13.9,13.9c2.3,19.5,7,65.8,3,97.7c-6.2,49.7-52.5,64.3-54.5,64.9l-15.6,4.7l-6.4-15c-0.3-0.7-29.3-68.5-48.5-121.4c-23.1-63.7,20.6-104.6,21.9-105.7l59.5-59.5l-41.5-41.5L163.6,452.1l72.2,72.2c0,0,8,10.2,11.6,22.8c1.5,5.3,2.1,10.6,2.3,15.1c14.7,0.1,28.5,5.8,38.9,16.2c13,13,17.8,31.1,14.9,48.4l1.7,1.7c9.5-7,20.9-11,32.8-11c14.8,0,28.7,5.8,39.2,16.2c13.5,13.4,18.4,32.5,14.9,50.2c10-8.4,22.7-13,35.7-13c14.8,0,28.7,5.8,39.2,16.2c20.3,20.4,21.6,53.5,2.9,75.5c-0.3,0.3-0.5,0.6-0.8,0.9c-0.6,0.9-1.3,1.7-2.1,2.5l-5.5,5.5c3.9-0.8,7.8-1.4,11.8-1.4c14.8,0,28.7,5.8,39.2,16.3c16.2,16.2,20.2,40.6,11.6,61l4,4c0.3,0.4,0.4,0.9,0.8,1.2c0.3,0.4,0.8,0.5,1.2,0.8l0.1,0.1v0c6.5,5.4,15.8,5.3,22.1-0.3l0.1,0.1l0.7-0.7l28.7-28.7l1.1-1.1l-0.2-0.2c5.3-6.3,5.3-15.3,0-21.6l0.4-0.4l-15.6-15.5l-8.7-8.7l18.9-18.9c3.5,3.5,6.2,6.1,6,5.9l25.3,25.3c0.3,0.4,0.4,0.8,0.8,1.2c0.4,0.4,0.8,0.5,1.2,0.8l0.1,0.1l0,0c6.4,5.4,15.8,5.3,22.1-0.3l0.1,0.1l0.7-0.7l28.7-28.7l1.1-1.1l-0.2-0.2c5.2-6.3,5.2-15.3,0-21.6l0.4-0.4l-27.5-27.5l-5.9-5.8l18.6-18.6c12.9,12.8,28.5,28.3,29,28.7l11.5,11.5c0.3,0.4,0.4,0.8,0.8,1.2c0.3,0.3,0.8,0.5,1.2,0.8l0.1,0.1h0c6.5,5.4,15.8,5.3,22.1-0.3l0.1,0.1l0.7-0.7l28.7-28.7l1.1-1.1l-0.2-0.2c5.3-6.3,5.3-15.3,0-21.6l0.4-0.4l-27.5-27.5l-15-14.9l19.2-19.2l26.9,26.9c0.7,0.7,1.5,1.2,2.2,1.8l11.5,11.5c0.3,0.4,0.4,0.9,0.8,1.2c0.3,0.4,0.8,0.5,1.2,0.8l0.1,0.1v0c6.5,5.4,15.8,5.3,22.1-0.3l0.1,0.1l0.7-0.7l28.7-28.7l1.1-1.1l-0.2-0.2C822,618.4,822,609.5,816.8,603.1z M649.3,685.7l0.1-0.1l14.9,14.9l0.1,0.1C664.7,700.9,657.7,694,649.3,685.7z"/><path d="M563.3,462.7c2.3,1,4.7,1.9,7.3,2.9C568,464.7,565.5,463.7,563.3,462.7z"/><path d="M547.7,454.4c0,0,0.5,0.4,1.4,0.9C548.4,454.8,547.7,454.4,547.7,454.4z"/><path d="M550.2,455.9c0.9,0.5,1.9,1.1,3.2,1.9C552.1,457.1,551,456.4,550.2,455.9z"/><path d="M555.5,459c1.4,0.7,3,1.5,4.7,2.3C558.5,460.5,556.9,459.7,555.5,459z"/><path d="M738.7,110.8L622.4,227.2l251.2,251.2L990,362.1L738.7,110.8z M882.7,418l-37.4-37.5l37.4-37.5l37.5,37.5L882.7,418z"/><path d="M10,353.1l108,108l242.4-242.4l-107.9-108L10,353.1z M137.4,391c-10.8,10.8-28.2,10.8-38.9,0c-10.8-10.7-10.8-28.2,0-38.9c10.7-10.8,28.2-10.8,38.9,0C148.2,362.9,148.2,380.3,137.4,391z"/><path d="M277.6,642.2c12.6-14.8,12.1-36.9-1.9-50.9c-14-13.9-36.1-14.5-50.8-1.9h0l-0.1,0.1c-0.7,0.6-1.5,1.1-2.2,1.8l-9.8,9.9c-0.7,0.7-1.2,1.5-1.8,2.2l-11.5,11.5c-0.4,0.3-0.8,0.4-1.2,0.8c-0.3,0.4-0.5,0.9-0.8,1.2l-0.1,0.1h0c-5.4,6.5-5.3,15.8,0.3,22.1l-0.1,0.1l0.7,0.7l28.7,28.7l1.1,1.1l0.2-0.2c6.3,5.2,15.3,5.2,21.6,0l0.4,0.4l15.6-15.6l9.8-9.8l2.1-2.1L277.6,642.2z"/><path d="M501.5,850.1c12.6-14.8,12.1-36.9-1.9-50.8c-14-14-36.1-14.5-50.9-1.9l0,0c0,0-1.6,1.3-2.3,1.9l-17.8,17.8c-0.7,0.7-1.2,1.5-1.8,2.2l-11.5,11.5c-0.4,0.3-0.8,0.4-1.2,0.8c-0.4,0.3-0.5,0.8-0.8,1.2l-0.1,0.1l0,0c-5.4,6.5-5.3,15.8,0.3,22.1l-0.1,0.1l0.7,0.7l28.7,28.7l1.1,1.1l0.2-0.2c6.3,5.2,15.3,5.2,21.6,0l0.4,0.4l15.6-15.6l9.8-9.8l10.1-10.1L501.5,850.1z"/><path d="M366.2,697.5c12.6-14.8,12.1-36.9-1.9-50.8c-14-14-36.1-14.5-50.9-1.9l-25.7,25.7l-0.1,0.1c-0.7,0.6,24.2-24.6,23.5-23.9l-9.8,9.8c-0.7,0.6-1.2,1.5-1.8,2.2l-37.1,37.2c-0.4,0.3-0.8,0.4-1.2,0.8c-0.3,0.3-0.5,0.8-0.8,1.2l-0.1,0.1l0,0c-5.4,6.4-5.3,15.8,0.3,22.1l-0.1,0.1l0.7,0.7l28.7,28.7l1.1,1.1l0.2-0.2c6.3,5.2,15.3,5.2,21.6,0l0.4,0.4l41.2-41.2l9.8-9.8l-23.6,23.6L366.2,697.5z"/><path d="M456,750.9c12.6-14.8,12.1-36.9-1.9-50.9c-14-13.9-36.1-14.5-50.8-1.9L359.4,742l-0.1,0.1c-0.7,0.6,42.4-42.8,41.7-42.1l-9.8,9.9c-0.7,0.6-45.1,45.3-45.7,46.1L334,767.4c-0.4,0.3-0.8,0.4-1.2,0.8c-0.3,0.4-0.5,0.8-0.8,1.2l-0.1,0.1h0c-5.4,6.5-5.3,15.8,0.3,22.1l-0.1,0.1l0.7,0.7l28.7,28.7l1.1,1.1l0.2-0.2c6.3,5.2,15.3,5.2,21.6,0l0.4,0.4l59.4-59.4l9.8-9.9L412.4,795L456,750.9z"/><path d="M447.4,277l-92.3,92.3c0,0-36.9,33.7-17.7,86.7c19.3,53,48.2,120.4,48.2,120.4s36.9-11.2,41.7-49.8c4.8-38.5-4.1-102-4.1-102l30.5-30.5l94,60.3c0,0,38.5,27.3,83.9,14.8c45.3-12.4,54.2-32.5,54.2-32.5l87.5,87.5l55.4-55.4L621.6,261.7L587.3,296L447.4,277z"/></g>
</svg>