<?xml version="1.0" encoding="utf-8"?>
<!-- Svg Vector Icons : http://www.onlinewebfonts.com/icon -->
<!DOCTYPE svg PUBLIC "-//W3C//DTD SVG 1.1//EN" "http://www.w3.org/Graphics/SVG/1.1/DTD/svg11.dtd">
<svg version="1.1" xmlns="http://www.w3.org/2000/svg" xmlns:xlink="http://www.w3.org/1999/xlink" x="0px" y="0px" viewBox="0 0 1000 1000" enable-background="new 0 0 1000 1000" xml:space="preserve">
<metadata> Svg Vector Icons : http://www.onlinewebfonts.com/icon </metadata>
<g><path d="M500,10L409,14.6c-50.6,2.2-59.7,78.3-106.4,96.8C243.5,159.8,167,190.1,90,185.5C37.1,504.2,185.9,907.3,527,990c310.2-118.1,434.3-493.9,381.7-800.8c-122.8,6.4-235.3-72.4-298.9-173.1l-90.9-5.9L500,10z M701,332.9c6.6,0,13.1,2.6,18.2,7.7l18.2,18.2c10.1,10.1,10.1,26.3,0,36.4L491.3,641.2l-18.2,18.2c-10.1,10.1-26.3,10.1-36.4,0l-18.3-18.2L262.6,485.4c-10.1-10.1-10.1-26.4,0-36.5l18.2-18.2c10.1-10.1,26.4-10.1,36.5,0l137.7,137.7l227.8-227.8C687.8,335.5,694.4,332.9,701,332.9z"/></g>
</svg>