<?xml version="1.0" encoding="utf-8"?>
<!-- Svg Vector Icons : http://www.onlinewebfonts.com/icon -->
<!DOCTYPE svg PUBLIC "-//W3C//DTD SVG 1.1//EN" "http://www.w3.org/Graphics/SVG/1.1/DTD/svg11.dtd">
<svg version="1.1" xmlns="http://www.w3.org/2000/svg" xmlns:xlink="http://www.w3.org/1999/xlink" x="0px" y="0px" viewBox="0 0 1000 1000" enable-background="new 0 0 1000 1000" xml:space="preserve">
<metadata> Svg Vector Icons : http://www.onlinewebfonts.com/icon </metadata>
<g><path d="M92.9,905.7l809.6-5.6c46-0.3,83.7-38.3,84-84.7l3.4-499.7c0.3-46.4-36.9-83.9-82.9-83.6L675,233.7c-5.9-41.2-34.3-140.4-171.7-139.4C365.9,95.3,336,194.9,329.6,236.1l-232.1,1.6c-46,0.3-83.7,38.3-84,84.7L10,822.1C9.7,868.5,46.9,906,92.9,905.7z M902.8,864.9l-809.6,5.6c-26.8,0.2-48.4-21.6-48.3-48.7l2.3-337.7l348.8-2.4l-0.4,58.8c-0.2,25.7,20.5,46.6,46,46.4l116.6-0.8c25.5-0.2,46.5-21.3,46.6-47l0.4-58.8l348.8-2.4l-2.3,337.7C951.5,842.6,929.6,864.7,902.8,864.9z M570.4,480.5l-0.4,58.8c0,6.4-5.2,11.6-11.5,11.6l-116.6,0.8c-6.3,0-11.4-5.1-11.4-11.5l0.4-58.8L570.4,480.5z M503,129.5C609.8,128.7,634.3,200,639.9,234l-275.3,1.9C370.5,201.8,395.6,130.2,503,129.5z M97.2,272.9l809.6-5.6c26.8-0.2,48.4,21.6,48.2,48.7l-0.9,126.8L47.4,449l0.9-126.8C48.5,295.2,70.4,273.1,97.2,272.9z"/></g>
</svg>